<svg height="512" viewBox="0 0 50 50" width="512" xmlns="http://www.w3.org/2000/svg"><g id="Icons"><path d="m43.4 6.6a5.44 5.44 0 0 0 -7.71 0l-19.57 19.62a1 1 0 0 0 -.28.59l-.84 7.07a1 1 0 0 0 .28.82 1 1 0 0 0 .72.3h.11l7.13-.74a1 1 0 0 0 .6-.29l19.56-19.63a5.49 5.49 0 0 0 0-7.74zm-20.72 25.69-5.54.59.64-5.49 15.46-15.5 4.89 4.9zm16.86-16.91-4.89-4.91 2.45-2.47a3.53 3.53 0 0 1 4.9 0 3.47 3.47 0 0 1 0 4.9z"/><path d="m39 38a5 5 0 0 1 -5 5h-22a5 5 0 0 1 -5-5v-22a5 5 0 0 1 5-5h15v-2h-15a7 7 0 0 0 -7 7v22a7 7 0 0 0 7 7h22a7 7 0 0 0 7-7v-15h-2z"/></g></svg>